<svg id="SvgjsSvg1001" width="288" height="288" xmlns="http://www.w3.org/2000/svg" version="1.1" xmlns:xlink="http://www.w3.org/1999/xlink" xmlns:svgjs="http://svgjs.com/svgjs"><defs id="SvgjsDefs1002"></defs><g id="SvgjsG1008" transform="matrix(0.9167,0,0,0.9167,11.811225602340699,11.84988448715211)"><svg xmlns="http://www.w3.org/2000/svg" enable-background="new 0 0 652 652" viewBox="0 0 652 652" width="288" height="288"><polygon points="343.2 391.8 280.4 345.8 266 353.7 266 391.8 250.9 391.8 250.9 299 266 299 266 338.2 337.3 299.4 365.7 299.4 293.7 338.6 366.3 391.8" fill="#ffffff" class="color000 svgShape"></polygon><path d="M40.8 380c-2.6 0-4.7-1.5-4.7-3.3V299H21v81c0 6.6 7.8 12 17.3 12 0 0 .1 0 .1 0v0H107v-12H40.8zM507.4 308.6c0-5.6-6.8-10.1-15.2-10.1-6.5 0-12.1 2.7-14.2 6.6h0l0 0c0 0 0 .1-.1.1L439 378.1l-38.9-72.9 0 0c-2.1-3.9-7.7-6.6-14.2-6.6-8.4 0-15.2 4.5-15.2 10.1 0 .3 0 .6.1.9v82.3h15.1v-82.5l40.4 75.7 0 0c1.8 4 6.8 6.8 12.7 6.8 6.1 0 11.3-3.1 12.9-7.2l0 0 40.2-75.4v82.6h15.1v-82.3C507.3 309.2 507.4 308.9 507.4 308.6M226 392h17.6l-51-87.2 0 0c-2.5-4.2-7.7-7.1-13.6-7.1-5.6 0-10.5 2.6-13.2 6.4l0 0-.1.2c0 0-.1.1-.1.1l0 0L114.4 392H132l21.2-36.3h51.5L226 392zM160.2 343.7l18.8-32.2 18.8 32.2H160.2zM619.7 310.9V299h-82.1c-9.5 0-17.3 5.3-17.3 11.9h0v69.9c0 6.6 7.8 12 17.3 11.9H621v-11.9h-85.7v-29.4h75.7v-11.9h-75.7v-28.5H619.7z" fill="#ffffff" class="color000 svgShape"></path><polygon points="610 261.9 536.7 290.4 532.8 280 606.1 251.4" fill="#ffffff" class="color000 svgShape"></polygon></svg></g></svg>